<?xml version="1.0" encoding="UTF-8"?>
<svg width="44px" height="44px" viewBox="0 0 44 44" version="1.1" xmlns="http://www.w3.org/2000/svg" xmlns:xlink="http://www.w3.org/1999/xlink">
    <!-- Generator: Sketch 52.5 (67469) - http://www.bohemiancoding.com/sketch -->
    <title>语音icon</title>
    <desc>Created with Sketch.</desc>
    <g id="new" stroke="none" stroke-width="1" fill="none" fill-rule="evenodd">
        <g id="首页" transform="translate(-10.000000, -616.000000)" fill="#333333">
            <g id="分组-9">
                <g id="底部输入框" transform="translate(0.000000, 608.000000)">
                    <g id="分组-7">
                        <g id="分组-5" transform="translate(10.000000, 8.000000)">
                            <path d="M22,7 C30.2842712,7 37,13.7157288 37,22 C37,30.2842712 30.2842712,37 22,37 C13.7157288,37 7,30.2842712 7,22 C7,13.7157288 13.7157288,7 22,7 Z M22,8.5 C14.5441559,8.5 8.5,14.5441559 8.5,22 C8.5,29.4558441 14.5441559,35.5 22,35.5 C29.4558441,35.5 35.5,29.4558441 35.5,22 C35.5,14.5441559 29.4558441,8.5 22,8.5 Z M18.1213203,19.8786797 C18.6642136,20.4215729 19,21.1715729 19,22 C19,22.8284271 18.6642136,23.5784271 18.1213203,24.1213203 L16,22 L18.1213203,19.8786797 Z M19.5355339,18.4644661 L20.9497475,17.0502525 C22.2164983,18.3170034 23,20.0670034 23,22 C23,23.9329966 22.2164983,25.6829966 20.9497475,26.9497475 L19.5355339,25.5355339 C20.4403559,24.6307119 21,23.3807119 21,22 C21,20.6192881 20.4403559,19.3692881 19.5355339,18.4644661 Z M22.363961,15.636039 L23.7781746,14.2218254 C25.7687831,16.2124339 27,18.9624339 27,22 C27,25.0375661 25.7687831,27.7875661 23.7781746,29.7781746 L22.363961,28.363961 C23.9926407,26.7352814 25,24.4852814 25,22 C25,19.5147186 23.9926407,17.2647186 22.363961,15.636039 Z" id="合并形状"></path>
                        </g>
                    </g>
                </g>
            </g>
        </g>
    </g>
</svg>