<?xml version="1.0" encoding="UTF-8"?>
<svg width="44px" height="44px" viewBox="0 0 44 44" version="1.1" xmlns="http://www.w3.org/2000/svg" xmlns:xlink="http://www.w3.org/1999/xlink">
    <!-- Generator: Sketch 52.5 (67469) - http://www.bohemiancoding.com/sketch -->
    <title>键盘icon</title>
    <desc>Created with Sketch.</desc>
    <g id="new" stroke="none" stroke-width="1" fill="none" fill-rule="evenodd">
        <g id="首页-语音模式" transform="translate(-10.000000, -816.000000)" fill="#333">
            <g id="分组-10">
                <g id="底部输入框" transform="translate(0.000000, 808.000000)">
                    <g id="分组-7">
                        <g id="分组-5" transform="translate(10.000000, 8.000000)">
                            <path d="M22,7 C30.2842712,7 37,13.7157288 37,22 C37,30.2842712 30.2842712,37 22,37 C13.7157288,37 7,30.2842712 7,22 C7,13.7157288 13.7157288,7 22,7 Z M22,8.5 C14.5441559,8.5 8.5,14.5441559 8.5,22 C8.5,29.4558441 14.5441559,35.5 22,35.5 C29.4558441,35.5 35.5,29.4558441 35.5,22 C35.5,14.5441559 29.4558441,8.5 22,8.5 Z" id="合并形状"></path>
                            <path d="M17,20.5 C17.8284271,20.5 18.5,21.1715729 18.5,22 C18.5,22.8284271 17.8284271,23.5 17,23.5 C16.1715729,23.5 15.5,22.8284271 15.5,22 C15.5,21.1715729 16.1715729,20.5 17,20.5 Z M22,20.5 C22.8284271,20.5 23.5,21.1715729 23.5,22 C23.5,22.8284271 22.8284271,23.5 22,23.5 C21.1715729,23.5 20.5,22.8284271 20.5,22 C20.5,21.1715729 21.1715729,20.5 22,20.5 Z M27,20.5 C27.8284271,20.5 28.5,21.1715729 28.5,22 C28.5,22.8284271 27.8284271,23.5 27,23.5 C26.1715729,23.5 25.5,22.8284271 25.5,22 C25.5,21.1715729 26.1715729,20.5 27,20.5 Z M17,15.5 C17.8284271,15.5 18.5,16.1715729 18.5,17 C18.5,17.8284271 17.8284271,18.5 17,18.5 C16.1715729,18.5 15.5,17.8284271 15.5,17 C15.5,16.1715729 16.1715729,15.5 17,15.5 Z M22,15.5 C22.8284271,15.5 23.5,16.1715729 23.5,17 C23.5,17.8284271 22.8284271,18.5 22,18.5 C21.1715729,18.5 20.5,17.8284271 20.5,17 C20.5,16.1715729 21.1715729,15.5 22,15.5 Z M27,15.5 C27.8284271,15.5 28.5,16.1715729 28.5,17 C28.5,17.8284271 27.8284271,18.5 27,18.5 C26.1715729,18.5 25.5,17.8284271 25.5,17 C25.5,16.1715729 26.1715729,15.5 27,15.5 Z M28.5,27.5 C28.5,28.0522847 28.0522847,28.5 27.5,28.5 L16.5,28.5 C15.9477153,28.5 15.5,28.0522847 15.5,27.5 C15.5,26.9477153 15.9477153,26.5 16.5,26.5 L27.5,26.5 C28.0522847,26.5 28.5,26.9477153 28.5,27.5 Z" id="合并形状"></path>
                        </g>
                    </g>
                </g>
            </g>
        </g>
    </g>
</svg>