<?xml version="1.0" standalone="no"?><!DOCTYPE svg PUBLIC "-//W3C//DTD SVG 1.1//EN" "http://www.w3.org/Graphics/SVG/1.1/DTD/svg11.dtd"><svg class="icon" width="32px" height="32.00px" viewBox="0 0 1024 1024" version="1.1" xmlns="http://www.w3.org/2000/svg"><path fill="#bfbfbf" d="M298.26205 128.43122034C362.25091339 83.75260516 440.49417053 59.77626945 518.5481125 61.48011498c60.63685357 0.97998928 120.91734821 17.22777143 173.92587411 46.67200269 74.21193661 40.62502143 133.37880625 107.75430625 164.84983482 186.2425616 20.80250536 51.28240804 29.93422678 107.26431161 26.45971785 162.4889509-5.08926428 88.71132767-43.44249196 174.98381785-105.85000893 238.21541696-60.1134509 61.69479733-142.36575625 101.17278572-228.03688839 109.74769375-25.35722947 2.66156249-51.01513839 2.6726991-76.37236875-0.01113571-83.71115357-8.39672857-164.27075-46.18200804-223.89420535-105.61614732-1.29180446-1.24725981-2.85087857-2.13815893-4.40995268-2.98451429-0.42317767-2.91769643-3.218375-4.48790714-5.00017411-6.55924821-18.55298393-19.68888125-34.91212767-41.43796786-48.78788929-64.6570384C159.08125981 570.98559623 141.0962241 508.64489712 138.93579285 445.74738553v-23.34156965c1.64816429-43.16408572 10.27875447-86.12771876 26.41517321-126.2293375C191.94431875 228.84674088 238.83904643 169.7578257 298.26205 128.43122034m192.23386071 143.13415715c-3.48564465 4.25404553-5.4233509 9.46580804-7.97355089 14.26552947-10.56829643 21.45954375-21.12545715 42.9302241-31.70489018 64.38976873-26.77153303 4.00904822-53.58761072 7.75082678-80.35914375 11.74873841-9.12058482 1.15816965-17.51731339 7.09378839-21.32590892 15.50165267-4.68835893 9.41012678-3.19610267 21.4149991 3.56359821 29.44423215 3.97563928 4.52131518 8.45240982 8.57490892 12.79554554 12.71759196 15.73551429 15.78005892 32.06124911 30.95876072 47.71880981 46.79450089-4.84426696 26.89403125-9.34330982 53.85488125-13.90916964 80.80459376-2.50565537 14.25439375 8.25195714 28.97650982 22.5174875 31.17035 8.56377232 1.93770625 16.90481964-1.85975268 24.14337858-6.06925358 21.92726606-11.50374107 43.8211241-23.09657232 65.78179911-34.55576785 23.98747143 12.61736518 47.93039821 25.30154822 71.98468838 37.80755178 9.35444553 5.15608125 21.52636161 4.07586607 29.91195358-2.49451964 8.21854911-6.1026625 12.17191608-17.03845447 10.3121625-27.02766608-4.47677053-26.67130714-9.25421964-53.28693214-13.64190001-79.96937499 19.19888661-18.65321072 38.30868304-37.40664732 57.55211429-56.00417678 4.86653929-4.66608661 8.37445625-10.91352053 8.89785983-17.71776518 1.38089465-10.81329375-4.44336161-22.0720375-14.06507768-27.18357411-5.67948482-3.218375-12.32782321-3.53018929-18.6309375-4.5435884-23.78701965-3.39655446-47.56290267-6.97128929-71.36105804-10.28989017-12.12737053-24.24360536-23.96519911-48.63198214-36.00348035-72.92013215-3.69723304-7.46128392-10.74647678-13.26326786-18.93161608-15.00052232-9.85557678-2.37202053-20.81364197 1.34748571-27.27266429 9.13172143zM549.89664196 788.59277263c85.67113303-8.57490892 167.92343839-48.05289732 228.0368884-109.74769376 16.7377759 62.48547054 33.48668839 124.98207767 50.23560178 187.46754822 1.72611786 6.04698125 3.53018929 12.42804911 2.03793215 18.7423-1.94884286 11.23647143-11.67078482 20.54637233-22.98520982 21.99408392-5.72403035 0.85749107-11.4146509-0.43431339-17.03845448-1.32521339-27.90743036-4.38768037-55.81485981-8.81990625-83.71115356-13.20758661-24.16565178 19.54410982-48.32016696 39.12162858-72.50809108 58.64346608-7.50582947 6.23629733-18.39707678 7.9958241-27.47311696 4.42108929-8.37445625-3.08474019-14.84461429-10.52375179-16.96050089-19.16547769-13.27440447-49.25561161-26.41517321-98.55576785-39.63389554-147.82251606zM245.22011518 679.98097531c1.5590741 0.84635447 3.11814821 1.73725447 4.40995268 2.98451428 59.62345536 59.43413929 140.18305179 97.21941875 223.89420535 105.61614732-13.34122142 49.17765804-26.35949196 98.43326965-39.64503215 147.61092768-2.19384018 8.99808572-9.00922232 16.79345715-17.8736732 19.68888125-8.95354107 3.14042142-19.42161161 1.31407678-26.70471519-4.79972232-24.1879241-19.48842857-48.29789463-39.08821965-72.50809106-58.56551251-28.29719822 4.54358839-56.61666964 8.95354107-84.92500446 13.4191759-4.62154196 0.71271963-9.27649197 1.68157322-13.97598751 1.30294018-9.46580804-0.63476607-18.30798661-6.69288304-22.38385268-15.23438304-3.28519196-6.38106875-3.63041608-13.9871241-1.62589196-20.81364195 17.14981696-63.73273035 34.07690982-127.52114107 51.33809018-191.20932679z" /></svg>