<?xml version="1.0" standalone="no"?><!DOCTYPE svg PUBLIC "-//W3C//DTD SVG 1.1//EN" "http://www.w3.org/Graphics/SVG/1.1/DTD/svg11.dtd"><svg class="icon" width="32px" height="32.00px" viewBox="0 0 1024 1024" version="1.1" xmlns="http://www.w3.org/2000/svg"><path fill="#bfbfbf" d="M594.174 173.989c-21.545-26.938-32.321-48.482-64.642-48.482s-48.481 26.937-64.642 48.481L120.124 755.781c-16.161 21.553-26.938 48.481-16.161 75.419 5.383 21.545 26.937 32.321 59.259 32.321h732.61c43.098 0 59.258-21.545 59.258-32.321 10.777-26.938 0-53.866-16.16-75.419L594.174 173.989z m-96.963 193.926c0-21.544 21.545-43.088 43.088-43.088 21.554 0 43.099 16.16 43.099 43.088v199.321c0 21.555-21.545 43.089-43.09 43.089-21.553 0-43.097-21.535-43.097-43.089V367.915z m43.088 382.481c-21.544 0-43.088-21.555-43.088-43.088 0-21.555 21.545-43.109 43.088-43.109 21.554 0 43.099 21.555 43.099 43.099 0 26.936-21.545 43.088-43.09 43.088l-0.009 0.01z" /></svg>