<?xml version="1.0" standalone="no"?><!DOCTYPE svg PUBLIC "-//W3C//DTD SVG 1.1//EN" "http://www.w3.org/Graphics/SVG/1.1/DTD/svg11.dtd"><svg t="1717397781753" class="icon" viewBox="0 0 1024 1024" version="1.1" xmlns="http://www.w3.org/2000/svg" p-id="5001" xmlns:xlink="http://www.w3.org/1999/xlink" width="200" height="200"><path d="M557.82968853 73.86453333l434.08497814 397.9036448a36.40888853 36.40888853 0 0 1-24.576 63.26044374l-42.96248854-0.0455104v318.57777706a91.02222187 91.02222187 0 0 1-91.02222293 91.02222294h-637.1555552a91.02222187 91.02222187 0 0 1-91.02222187-91.02222294v-318.57777706h-42.91697813a36.40888853 36.40888853 0 0 1-24.576-63.21493334l434.03946667-397.9036448a63.7155552 63.7155552 0 0 1 86.10702186 0zM299.14453333 596.65066667a45.51111147 45.51111147 0 0 0 0 64.35271146 298.64391147 298.64391147 0 0 0 422.34311147 0 45.51111147 45.51111147 0 0 0-64.35271147-64.35271146 207.62168853 207.62168853 0 0 1-293.59217813 0 45.51111147 45.51111147 0 0 0-64.39822187 0z"  p-id="5002"></path></svg>