<?xml version="1.0" standalone="no"?><!DOCTYPE svg PUBLIC "-//W3C//DTD SVG 1.1//EN" "http://www.w3.org/Graphics/SVG/1.1/DTD/svg11.dtd"><svg t="1717484082115" class="icon" viewBox="0 0 1024 1024" version="1.1" xmlns="http://www.w3.org/2000/svg" p-id="1901" xmlns:xlink="http://www.w3.org/1999/xlink" width="200" height="200"><path d="M933.466667 415.333333c-5.866667-19.2-21.466667-33.066667-40.933334-36l-231.066666-35.2L558.133333 125.333333c-8.666667-18.266667-26-29.6-45.466666-29.6-19.466667 0-36.8 11.333333-45.466667 29.466667l-103.333333 219.066667-231.2 35.2c-19.333333 2.933333-35.066667 16.666667-40.933334 36-6 18.933333-1.066667 39.6 12.8 53.866666l167.2 170.4-39.466666 240.8c-3.2 19.866667 4.4 39.6 20 51.6s36.133333 13.333333 62.266666 4.4l0.4-0.133333L521.866667 822.666667l197.2 113.333333c17.066667 9.6 38.133333 8 53.6-4 15.733333-12.133333 23.466667-31.866667 20.133333-51.466667L753.333333 639.733333 920.533333 469.333333c13.866667-14.266667 18.8-34.933333 12.933334-54z" fill="#666666" p-id="1902"></path></svg>