<?xml version="1.0" standalone="no"?><!DOCTYPE svg PUBLIC "-//W3C//DTD SVG 1.1//EN" "http://www.w3.org/Graphics/SVG/1.1/DTD/svg11.dtd"><svg t="1717483578522" class="icon" viewBox="0 0 1024 1024" version="1.1" xmlns="http://www.w3.org/2000/svg" p-id="4618" xmlns:xlink="http://www.w3.org/1999/xlink" width="260" height="260"><path d="M707.145143 475.648a43.282286 43.282286 0 0 1 33.718857 21.504l62.226286 91.245714 92.379428 25.088a44.214857 44.214857 0 0 1 30.976 27.556572 46.208 46.208 0 0 1-12.068571 39.972571l-65.517714 88.484572 5.485714 99.236571c-1.645714 38.857143-22.747429 44.653714-35.364572 44.653714a60.288 60.288 0 0 1-18.358857-3.291428l-101.156571-37.778286-89.088 36.388571a77.494857 77.494857 0 0 1-26.038857 5.778286 27.337143 27.337143 0 0 1-21.394286-9.088 50.944 50.944 0 0 1-7.68-38.326857l3.291429-110.262857-60.288-76.891429a49.828571 49.828571 0 0 1-8.502858-41.910857 41.728 41.728 0 0 1 29.330286-24.521143l33.718857-11.574857 69.083429-21.229714 51.529143-82.706286a39.734857 39.734857 0 0 1 33.718857-22.308571zM559.451429 548.571429l-52.425143 20.150857-43.922286 17.353143c-17.517714 3.913143-31.451429 16.091429-38.454857 32.713142a66.450286 66.450286 0 0 0 11.337143 55.862858l71.04 101.741714-0.018286 117.888-324.278857 0.018286c-16.512 0-29.622857-4.992-39.369143-14.976-9.764571-9.984-14.866286-23.259429-15.36-39.771429v-126.006857c0.987429-45.476571 16.731429-83.986286 47.213714-115.474286 30.500571-31.488 69.76-48 117.76-49.481143l266.477715-0.018285zM457.161143 128c54.473143 1.536 99.766857 20.187429 135.753143 56.228571 35.968 36.041143 54.729143 81.298286 56.210285 135.771429-1.481143 54.528-20.187429 99.785143-56.210285 135.771429C556.891429 491.757714 511.634286 510.518857 457.142857 512c-54.491429-1.481143-99.748571-20.187429-135.734857-56.228571-35.968-36.041143-54.729143-81.243429-56.210286-135.771429 1.481143-54.473143 20.187429-99.785143 56.210286-135.771429C357.449143 148.242286 402.651429 129.481143 457.161143 128z" fill="#666666" p-id="4619"></path></svg>