<?xml version="1.0" standalone="no"?><!DOCTYPE svg PUBLIC "-//W3C//DTD SVG 1.1//EN" "http://www.w3.org/Graphics/SVG/1.1/DTD/svg11.dtd"><svg t="1717397735872" class="icon" viewBox="0 0 1024 1024" version="1.1" xmlns="http://www.w3.org/2000/svg" p-id="3628" xmlns:xlink="http://www.w3.org/1999/xlink" width="200" height="200"><path d="M903.7 67.4L562.9 88.1c-7.3 0.4-14.2 3.6-19.4 8.7l-456 456.1c-19.5 19.5-19.5 51.2 0 70.7l312.8 312.8c19.5 19.5 51.2 19.5 70.7 0l456-456.1c5.2-5.2 8.3-12.1 8.7-19.4l20.8-340.6c1.9-29.9-22.9-54.7-52.8-52.9zM768.1 319.6c-35.3 0-63.9-28.6-63.9-63.9s28.6-63.9 63.9-63.9 63.9 28.6 63.9 63.9-28.6 63.9-63.9 63.9z" p-id="3629" ></path></svg>