<?xml version="1.0" standalone="no"?>
  <!DOCTYPE svg PUBLIC "-//W3C//DTD SVG 1.1//EN" "http://www.w3.org/Graphics/SVG/1.1/DTD/svg11.dtd">
    <svg t="1717397743807" class="icon" viewBox="0 0 1026 1024" version="1.1" xmlns="http://www.w3.org/2000/svg" p-id="3863" xmlns:xlink="http://www.w3.org/1999/xlink" width="200.390625" height="200">
       <path d="M192.512 256a256 256 0 1 0 512 0 256 256 0 1 0-512 0z" p-id="3864" ></path>
       <path d="M419.84 716.8c0-34.816 28.672-61.44 61.44-61.44h288.768C690.176 567.296 575.488 512 446.464 512c-217.088 0-399.36 159.744-430.08 370.688-6.144 34.816 22.528 65.536 57.344 65.536h348.16V716.8z" p-id="3865" ></path>
       <path d="M974.848 714.752h-430.08c-26.624 0-49.152 22.528-49.152 49.152v210.944c0 26.624 22.528 49.152 49.152 49.152h432.128c26.624 0 49.152-22.528 49.152-49.152V763.904c0-26.624-22.528-49.152-51.2-49.152z m-36.864 225.28H583.68c-10.24 0-20.48-10.24-20.48-22.528 0-12.288 8.192-22.528 20.48-22.528h354.304c10.24 0 20.48 10.24 20.48 22.528 0 14.336-10.24 22.528-20.48 22.528z m0-104.448H583.68c-10.24 0-20.48-10.24-20.48-22.528 0-12.288 8.192-22.528 20.48-22.528h354.304c10.24 0 20.48 10.24 20.48 22.528 0 12.288-10.24 22.528-20.48 22.528z" p-id="3866" ></path>
    </svg>