<?xml version="1.0" standalone="no"?><!DOCTYPE svg PUBLIC "-//W3C//DTD SVG 1.1//EN" "http://www.w3.org/Graphics/SVG/1.1/DTD/svg11.dtd"><svg t="1723010207085" class="icon" viewBox="0 0 1024 1024" version="1.1" xmlns="http://www.w3.org/2000/svg" p-id="2527" xmlns:xlink="http://www.w3.org/1999/xlink" width="32" height="32"><path d="M832.5 173.5h-49c0 24.5-19.9 44.4-44.4 44.4h-444c-24.5 0-44.4-19.9-44.4-44.4h-49c-21.1 0-38.2 17.1-38.2 38.2v669c0 21.1 17.1 38.2 38.2 38.2h630.8c21.1 0 38.2-17.1 38.2-38.2v-669c0-21.1-17.1-38.2-38.2-38.2zM497.8 641.1l-27 27L362.7 560l27-27 80.8 80.8 189.4-189.4 27 27-189.4 189.3 0.3 0.4z" p-id="2528"></path><path d="M310.4 194h401.4c21.1 0 38.2-17.1 38.2-38.2s-17.1-38.2-38.2-38.2H310.4c-21.1 0-38.2 17.1-38.2 38.2s17.1 38.2 38.2 38.2z" p-id="2529"></path></svg>