<?xml version="1.0" standalone="no"?><!DOCTYPE svg PUBLIC "-//W3C//DTD SVG 1.1//EN" "http://www.w3.org/Graphics/SVG/1.1/DTD/svg11.dtd"><svg t="1717397751307" class="icon" viewBox="0 0 1024 1024" version="1.1" xmlns="http://www.w3.org/2000/svg" p-id="4096" xmlns:xlink="http://www.w3.org/1999/xlink" width="200" height="200"><path d="M681.2928 269.405867c2.730667 5.410133 6.1696 10.402133 10.333867 14.702933a20.744533 20.744533 0 0 0 15.240533 6.016H827.733333v-13.44a56.456533 56.456533 0 0 0-1.6128-12.373333 46.839467 46.839467 0 0 0-8.721066-16.128 219.093333 219.093333 0 0 0-20.104534-23.176534 589.9264 589.9264 0 0 0-35.293866-33.4848c-14.882133-13.013333-24.9344-22.766933-33.015467-29.44a414.702933 414.702933 0 0 0-23.022933-17.4336 55.2448 55.2448 0 0 0-16.221867-7.688533 57.966933 57.966933 0 0 0-13.9776 0H674.133333v98.8416c0.1024 4.864 0.546133 11.067733 1.544534 15.8464 1.058133 5.290667 2.6368 10.436267 4.7104 15.394133l0.904533 2.321067v0.042667z"  p-id="4097"></path><path d="M688.401067 529.6384a53.290667 53.290667 0 0 1-37.546667 14.506667h-314.368a51.6352 51.6352 0 0 1-36.8896-14.506667 47.675733 47.675733 0 0 1-15.249067-35.959467 49.169067 49.169067 0 0 1 15.249067-36.3264 50.397867 50.397867 0 0 1 36.864-14.890666h315.6992a52.155733 52.155733 0 0 1 37.538133 14.890666 48.699733 48.699733 0 0 1 15.5904 36.3264 47.744 47.744 0 0 1-15.5904 35.959467h-1.297066z m0-189.226667a73.514667 73.514667 0 0 1-40.157867-10.274133 88.388267 88.388267 0 0 1-27.579733-25.156267 112.187733 112.187733 0 0 1-15.616-33.006933 132.0448 132.0448 0 0 1-5.009067-33.006933V136.5504H278.784a71.150933 71.150933 0 0 0-38.1952 10.24 133.486933 133.486933 0 0 0-31.479467 25.1648 124.808533 124.808533 0 0 0-21.930666 33.006933 92.4928 92.4928 0 0 0-7.978667 36.693334v555.648a76.586667 76.586667 0 0 0 10.9568 39.278933 140.586667 140.586667 0 0 0 27.221333 33.006933 156.928 156.928 0 0 0 35.498667 23.492267 81.501867 81.501867 0 0 0 33.160533 8.8576h232.337067l163.328-165.205333a48.145067 48.145067 0 0 1-30.839467 9.890133h-314.368a50.517333 50.517333 0 0 1-36.898133-14.882133 47.112533 47.112533 0 0 1-15.249067-33.646934 48.8192 48.8192 0 0 1 15.249067-36.3264 49.271467 49.271467 0 0 1 36.864-15.172266h315.6992a51.217067 51.217067 0 0 1 37.538133 15.172266 48.699733 48.699733 0 0 1 15.5904 36.3264 48.162133 48.162133 0 0 1-9.2672 28.373334l115.464534-115.933867V340.394667H688.401067v0.0256z m40.789333 425.6256l-30.208 29.764267-27.869867 27.477333-20.906666 20.497067-10.965334 10.555733a63.837867 63.837867 0 0 0-13.653333 18.491734c-1.783467 4.104533-3.328 8.302933-4.642133 12.5696l-6.314667 19.1488-5.956267 19.7888c-1.655467 6.5536-2.679467 11.537067-3.345066 14.506666a17.288533 17.288533 0 0 0 1.672533 13.866667c2.3296 2.679467 6.596267 3.601067 13.653333 2.679467 5.034667-0.9216 10.0352-2.133333 14.958934-3.6096a189.713067 189.713067 0 0 0 21.282133-5.632c7.338667-1.9456 14.301867-4.608 21.546667-6.929067l17.553066-7.953067 9.949867-5.930666 9.275733-6.929067 28.526934-28.373333 27.8784-27.101867 30.199466-29.397333 81.664-78.933334-70.621866-68.795733-83.703467 80.238933h0.0256z m209.467733-75.630933a71.697067 71.697067 0 0 0-3.336533-16.546133 67.729067 67.729067 0 0 0-14.958933-21.444267 59.485867 59.485867 0 0 0-17.92-14.225067 45.243733 45.243733 0 0 0-19.6096-5.265066 26.589867 26.589867 0 0 0-21.5552 7.5776l-10.581334 8.8576c-3.549867 3.524267-7.313067 6.826667-11.255466 9.898666l71.364266 68.693334c2.1248-1.4848 4.164267-3.140267 5.930667-4.992l5.956267-6.289067 7.620266-7.594667c5.4784-4.608 8.533333-11.451733 8.3456-18.645333v-0.0256z"  p-id="4098"></path></svg>