<?xml version="1.0" standalone="no"?><!DOCTYPE svg PUBLIC "-//W3C//DTD SVG 1.1//EN" "http://www.w3.org/Graphics/SVG/1.1/DTD/svg11.dtd"><svg t="1717397774706" class="icon" viewBox="0 0 1024 1024" version="1.1" xmlns="http://www.w3.org/2000/svg" p-id="4765" xmlns:xlink="http://www.w3.org/1999/xlink" width="200" height="200"><path d="M512 321.58m-250 0a250 250 0 1 0 500 0 250 250 0 1 0-500 0Z" p-id="4766" ></path><path d="M897 666H783.77c-17.67 0-32-14.33-32-32s14.33-32 32-32H897c17.67 0 32 14.33 32 32s-14.33 32-32 32zM897 805.5H701c-17.67 0-32-14.33-32-32s14.33-32 32-32h196c17.67 0 32 14.33 32 32s-14.33 32-32 32zM897 945H701c-17.67 0-32-14.33-32-32s14.33-32 32-32h196c17.67 0 32 14.33 32 32s-14.33 32-32 32zM548 822c0-104.99 64.73-194.86 156.45-231.89 15.56-6.28 17.08-27.74 2.46-35.97C649.06 521.54 582.64 503 512 503c-224.23 0-406 186.76-406 417.15 0 1.74 0.01 3.47 0.03 5.2 0.13 10.91 9.09 19.65 20 19.65h422.34c14.29 0 23.89-14.52 18.44-27.73C554.69 887.91 548 855.74 548 822z" p-id="4767" ></path></svg>