<?xml version="1.0" encoding="UTF-8"?>
<svg width="40px" height="40px" viewBox="0 0 40 40" version="1.1" xmlns="http://www.w3.org/2000/svg" xmlns:xlink="http://www.w3.org/1999/xlink">
    <!-- Generator: Sketch 60.1 (88133) - https://sketch.com -->
    <title>检查申请单</title>
    <desc>Created with Sketch.</desc>
    <g id="V3.3" stroke="none" stroke-width="1" fill="none" fill-rule="evenodd">
        <g id="语音文字转化" transform="translate(-264.000000, -450.000000)">
            <g id="编组-5" transform="translate(60.000000, 408.000000)">
                <g id="编组-4">
                    <g id="编组-26" transform="translate(204.000000, 42.000000)">
                        <g id="编组-7" transform="translate(1.600000, 0.800000)">
                            <rect id="矩形" fill="#2F8AFF" x="0" y="0.2" width="36.8" height="38" rx="8"></rect>
                            <g id="编组" transform="translate(8.000000, 6.000000)" fill="#FFFFFF" fill-rule="nonzero" opacity="0.942080543">
                                <path d="M16.8634096,2.2 C19.04475,2.2 20.8458602,3.90457338 20.9655223,6.0826291 L20.9713908,6.30798121 L20.9713908,20.5661972 C20.9713908,22.7475375 19.2668175,24.5486478 17.0887617,24.6683099 L16.8634096,24.6741784 L4.12632042,24.6741784 C1.94498008,24.6741784 0.143869839,22.969605 0.0242077465,20.7915493 L0.018339211,20.5661972 L0.018339211,6.30798121 C0.018339211,4.12664087 1.72291259,2.32553063 3.90096831,2.20586854 L4.12632042,2.2 L6.47373825,2.2 L14.5159918,2.2 L16.8634096,2.2 Z" id="路径"></path>
                            </g>
                            <rect id="矩形" fill="#84B7FF" opacity="0.482049851" x="12.4" y="13.2" width="13" height="2" rx="1"></rect>
                            <rect id="矩形备份" fill="#84B7FF" opacity="0.482049851" x="12.4" y="17.2" width="7" height="2" rx="1"></rect>
                            <path d="M21.5311043,19.2 C23.8091846,19.2 25.6635976,21.0659931 25.6635976,23.3600177 C25.6635976,24.1711761 25.4317398,24.9289924 25.0312779,25.5697705 L27.1637968,27.7760149 C27.4846061,28.107918 27.4777678,28.6387818 27.148517,28.9621935 C26.9936126,29.1153491 26.7849706,29.2007974 26.5678844,29.1999944 C26.3511889,29.1999944 26.1344935,29.1146622 25.9705828,28.9468067 L23.8782032,26.7831093 C23.2110621,27.2484891 22.4020456,27.5214342 21.5311043,27.5214342 C19.2530239,27.5214342 17.4,25.655441 17.4,23.3600177 C17.4,21.0645943 19.2530239,19.2 21.5311043,19.2 Z M21.5311043,20.8785545 C20.1725905,20.8785545 19.0668881,21.9919957 19.0668881,23.3600177 C19.0668881,24.7294384 20.1725905,25.8428796 21.5311043,25.8428796 C22.8910071,25.8428796 23.9967095,24.7294384 23.9967095,23.3600177 C23.9967095,21.9919957 22.8910071,20.8785545 21.5311043,20.8785545 Z" id="形状结合" fill="#84B7FF" fill-rule="nonzero"></path>
                        </g>
                    </g>
                </g>
            </g>
        </g>
    </g>
</svg>