<?xml version="1.0" encoding="UTF-8"?>
<svg width="20px" height="21px" viewBox="0 0 20 21" version="1.1" xmlns="http://www.w3.org/2000/svg" xmlns:xlink="http://www.w3.org/1999/xlink">
    <!-- Generator: Sketch 52.5 (67469) - http://www.bohemiancoding.com/sketch -->
    <title>合并形状</title>
    <desc>Created with Sketch.</desc>
    <g id="V-3.0主版本（AI问诊）" stroke="none" stroke-width="1" fill="none" fill-rule="evenodd">
        <g id="问诊提示-单选未选中-" transform="translate(-76.000000, -431.000000)" fill="#2F8AFF">
            <path d="M91.2040521,447 C91.649783,447 92,447.414 92,447.9 C92,448.404 91.649783,448.8 91.2040521,448.8 L81.7959479,448.8 C81.350217,448.8 81,448.404 81,447.9 C81,447.396 81.350217,447 81.7959479,447 L91.2040521,447 Z M95.090909,431.77279 C95.6,431.77279 96,432.197521 96,432.696118 L96,448.048156 C95.9999998,450.22721 94.2545454,452 92.1090909,452 L78.9090909,452 C77.3090908,452 76,450.670407 76,449.04535 L76,433.95465 C76,432.329592 77.309091,431 78.9090909,431 L89.4545454,431 C91.0545455,431 92.3636363,432.329593 92.3636363,433.95465 L92.3636363,444.059378 C92.3636363,444.871907 91.7090909,445.536703 90.9090909,445.536703 L81,445.536703 C79.8000001,445.536703 78.8181819,446.533897 78.8181819,447.752691 L78.8181819,447.937356 C78.8181818,449.156149 79.8,450.153344 81,450.153344 L92,450.153344 C93.1999999,450.153344 94.1818181,449.156149 94.1818181,447.937356 L94.1818181,432.696118 C94.1818181,432.179054 94.581818,431.77279 95.090909,431.77279 Z M85.2641602,437.370117 L85.2641602,435.620117 C85.2641602,435.136868 84.8724093,434.745117 84.3891602,434.745117 C83.905911,434.745117 83.5141602,435.136868 83.5141602,435.620117 L83.5141602,437.370117 L81.7641602,437.370117 C81.280911,437.370117 80.8891602,437.761868 80.8891602,438.245117 C80.8891602,438.728366 81.280911,439.120117 81.7641602,439.120117 L83.5141602,439.120117 L83.5141602,440.870117 C83.5141602,441.353366 83.905911,441.745117 84.3891602,441.745117 C84.8724093,441.745117 85.2641602,441.353366 85.2641602,440.870117 L85.2641602,439.120117 L87.0141602,439.120117 C87.4974093,439.120117 87.8891602,438.728366 87.8891602,438.245117 C87.8891602,437.761868 87.4974093,437.370117 87.0141602,437.370117 L85.2641602,437.370117 Z" id="合并形状"></path>
        </g>
    </g>
</svg>