<?xml version="1.0" encoding="UTF-8"?>
<svg width="40px" height="40px" viewBox="0 0 40 40" version="1.1" xmlns="http://www.w3.org/2000/svg" xmlns:xlink="http://www.w3.org/1999/xlink">
    <!-- Generator: Sketch 60.1 (88133) - https://sketch.com -->
    <title>检验申请单</title>
    <desc>Created with Sketch.</desc>
    <g id="V3.3" stroke="none" stroke-width="1" fill="none" fill-rule="evenodd">
        <g id="语音文字转化" transform="translate(-260.000000, -604.000000)">
            <g id="编组-4" transform="translate(60.000000, 562.000000)">
                <g id="编组-26" transform="translate(200.000000, 42.000000)">
                    <g id="编组-7" transform="translate(1.600000, 0.800000)">
                        <rect id="矩形" fill="#2F8AFF" x="0" y="0.2" width="36.8" height="38" rx="8"></rect>
                        <g id="编组" transform="translate(10.400000, 8.200000)">
                            <path d="M2,0 L14,0 L14,18 C14,21.3137085 11.3137085,24 8,24 C4.6862915,24 2,21.3137085 2,18 L2,0 L2,0 Z" id="矩形" fill="#FFFFFF" opacity="0.82"></path>
                            <rect id="矩形" fill="#FFFFFF" x="0" y="0" width="16" height="4" rx="2"></rect>
                            <path d="M2,15.2 L5.2,15.2 C5.6418278,15.2 6,15.5581722 6,16 C6,16.4418278 5.6418278,16.8 5.2,16.8 L2,16.8 L2,16.8 L2,15.2 Z" id="矩形" fill="#2F8AFF" fill-rule="nonzero"></path>
                            <path d="M2,11.2 L6.2,11.2 C6.6418278,11.2 7,11.5581722 7,12 C7,12.4418278 6.6418278,12.8 6.2,12.8 L2,12.8 L2,12.8 L2,11.2 Z" id="矩形" fill="#2F8AFF" fill-rule="nonzero"></path>
                            <path d="M2,7.2 L8.2,7.2 C8.6418278,7.2 9,7.5581722 9,8 C9,8.4418278 8.6418278,8.8 8.2,8.8 L2,8.8 L2,8.8 L2,7.2 Z" id="矩形" fill="#2F8AFF" fill-rule="nonzero"></path>
                        </g>
                    </g>
                </g>
            </g>
        </g>
    </g>
</svg>